<svg width="32" height="32" viewBox="0 0 32 32" fill="none" xmlns="http://www.w3.org/2000/svg">
<g clip-path="url(#clip0_638_1891)">
<path opacity="0.2" d="M24 8V21L11 8H24Z" fill="#2D746D"/>
<path d="M23.9999 7H10.9999C10.802 6.99984 10.6086 7.05841 10.444 7.16828C10.2794 7.27815 10.1511 7.43439 10.0753 7.61721C9.99957 7.80003 9.97977 8.00122 10.0184 8.19531C10.0571 8.38939 10.1524 8.56765 10.2924 8.7075L16.0862 14.5L7.29245 23.2925C7.19954 23.3854 7.12584 23.4957 7.07555 23.6171C7.02527 23.7385 6.99939 23.8686 6.99939 24C6.99939 24.1314 7.02527 24.2615 7.07555 24.3829C7.12584 24.5043 7.19954 24.6146 7.29245 24.7075C7.38536 24.8004 7.49566 24.8741 7.61705 24.9244C7.73844 24.9747 7.86855 25.0006 7.99995 25.0006C8.13134 25.0006 8.26145 24.9747 8.38284 24.9244C8.50424 24.8741 8.61454 24.8004 8.70745 24.7075L17.4999 15.9137L23.2924 21.7075C23.4323 21.8475 23.6106 21.9429 23.8046 21.9815C23.9987 22.0202 24.1999 22.0004 24.3827 21.9246C24.5656 21.8489 24.7218 21.7206 24.8317 21.556C24.9415 21.3914 25.0001 21.1979 24.9999 21V8C24.9999 7.73478 24.8946 7.48043 24.7071 7.29289C24.5195 7.10536 24.2652 7 23.9999 7ZM22.9999 18.5863L18.2074 13.7938L13.4137 9H22.9999V18.5863Z" fill="#2D746D"/>
</g>
<defs>
<clipPath id="clip0_638_1891">
<rect width="32" height="32" fill="white"/>
</clipPath>
</defs>
</svg>
