<svg width="32" height="32" viewBox="0 0 32 32" fill="none" xmlns="http://www.w3.org/2000/svg">
<g clip-path="url(#clip0_612_145)">
<path opacity="0.2" d="M27 5.99991V20.9999C19 27.9287 13 14.0712 5 20.9999V5.99991C13 -0.928836 19 12.9287 27 5.99991Z" fill="#2D746D"/>
<path d="M4.345 5.25009C4.23742 5.34334 4.15099 5.45848 4.09149 5.58783C4.032 5.71717 4.0008 5.85772 4 6.00009V27.0001C4 27.2653 4.10536 27.5197 4.29289 27.7072C4.48043 27.8947 4.73478 28.0001 5 28.0001C5.26522 28.0001 5.51957 27.8947 5.70711 27.7072C5.89464 27.5197 6 27.2653 6 27.0001V21.4713C9.34875 18.8263 12.2337 20.2526 15.5562 21.8976C17.6062 22.9113 19.8137 24.0038 22.1812 24.0038C23.9225 24.0038 25.7488 23.4101 27.6588 21.7538C27.7663 21.6606 27.8528 21.5454 27.9123 21.4161C27.9718 21.2868 28.0029 21.1462 28.0037 21.0038V6.00009C28.0033 5.80815 27.9476 5.62039 27.8433 5.45924C27.7391 5.29808 27.5906 5.17034 27.4157 5.09126C27.2408 5.01218 27.0469 4.98511 26.857 5.01327C26.6672 5.04144 26.4894 5.12365 26.345 5.25009C22.845 8.27884 19.88 6.81134 16.4438 5.11009C12.8838 3.34509 8.8475 1.34884 4.345 5.25009ZM26 20.5313C22.6512 23.1763 19.7663 21.7488 16.4438 20.1051C13.3188 18.5613 9.8425 16.8388 6 19.0551V6.47384C9.34875 3.82884 12.2337 5.25509 15.5562 6.89884C18.6812 8.44259 22.1588 10.1651 26 7.94884V20.5313Z" fill="#2D746D"/>
</g>
<defs>
<clipPath id="clip0_612_145">
<rect width="32" height="32" fill="white"/>
</clipPath>
</defs>
</svg>
